<svg width="20" height="21" viewBox="0 0 20 21" fill="none" xmlns="http://www.w3.org/2000/svg">
<path d="M19 12.7554C16.2207 13.8805 13.1827 14.5 10 14.5C6.8173 14.5 3.7793 13.8805 1 12.7554M14 5.5V3.5C14 2.39543 13.1046 1.5 12 1.5H8C6.89543 1.5 6 2.39543 6 3.5V5.5M10 11.5H10.01M3 19.5H17C18.1046 19.5 19 18.6046 19 17.5V7.5C19 6.39543 18.1046 5.5 17 5.5H3C1.89543 5.5 1 6.39543 1 7.5V17.5C1 18.6046 1.89543 19.5 3 19.5Z" stroke="#B1BEBF" stroke-width="2" stroke-linecap="round" stroke-linejoin="round"/>
</svg>
